<svg width="100" height="100" viewBox="0 0 100 100" fill="none" xmlns="http://www.w3.org/2000/svg">
<g id="jira">
<g id="jira_2">
<path id="Vector" d="M95.8223 0H47.6675C47.6675 5.76524 49.9577 11.2943 54.0343 15.371C58.111 19.4476 63.6401 21.7379 69.4053 21.7379H78.276V30.3027C78.2838 42.2972 88.0051 52.019 99.9997 52.0268V4.17744C99.9997 1.87096 98.1299 0 95.8223 0Z" fill="#2684FF"/>
<path id="Vector_2" d="M71.9958 23.9939H23.8413C23.8488 35.9884 33.5701 45.7102 45.5651 45.718H54.4358V54.3102C54.451 66.3047 64.1791 76.0198 76.1736 76.0198V28.1721C76.1736 25.8648 74.3031 23.9943 71.9958 23.9943V23.9939Z" fill="url(#paint0_linear_1902_2)"/>
<path id="Vector_3" d="M48.1548 47.9739H0C0 59.9794 9.73272 69.7117 21.7378 69.7117H30.6363V78.2762C30.6442 90.2598 40.3487 99.9772 52.3326 99.9999V52.1517C52.3326 49.8444 50.4621 47.9739 48.1548 47.9739Z" fill="url(#paint1_linear_1902_2)"/>
</g>
</g>
<defs>
<linearGradient id="paint0_linear_1902_2" x1="75.1432" y1="24.0777" x2="54.7834" y2="45.3223" gradientUnits="userSpaceOnUse">
<stop offset="0.18" stop-color="#0052CC"/>
<stop offset="1" stop-color="#2684FF"/>
</linearGradient>
<linearGradient id="paint1_linear_1902_2" x1="52.6807" y1="48.2106" x2="29.1294" y2="71.3819" gradientUnits="userSpaceOnUse">
<stop offset="0.18" stop-color="#0052CC"/>
<stop offset="1" stop-color="#2684FF"/>
</linearGradient>
</defs>
</svg>
