<svg width="100" height="100" viewBox="0 0 100 100" fill="none" xmlns="http://www.w3.org/2000/svg">
<g clip-path="url(#clip0_1904_4)">
<path d="M100 0H0V100H100V0Z" fill="#512BD4"/>
<path d="M17.8233 63.889C17.1162 63.889 16.5152 63.6535 16.0203 63.1822C15.5253 62.6989 15.2778 62.125 15.2778 61.4605C15.2778 60.7838 15.5253 60.2039 16.0203 59.7206C16.5152 59.2373 17.1162 58.9956 17.8233 58.9956C18.5422 58.9956 19.1491 59.2373 19.644 59.7206C20.1508 60.2039 20.4041 60.7838 20.4041 61.4605C20.4041 62.125 20.1508 62.6989 19.644 63.1822C19.1491 63.6535 18.5422 63.889 17.8233 63.889Z" fill="white"/>
<path d="M46.0892 63.4901H41.4931L29.3846 44.3873C29.0782 43.9039 28.8247 43.4024 28.6245 42.8829H28.5183C28.6126 43.4388 28.6598 44.6289 28.6598 46.4533V63.4901H24.594V37.5H29.4905L41.1927 56.1498C41.6876 56.9232 42.0058 57.4548 42.1473 57.7447H42.2179C42.1001 57.0561 42.0411 55.8901 42.0411 54.2467V37.5H46.0892V63.4901Z" fill="white"/>
<path d="M65.888 63.4901H51.6582V37.5H65.3225V41.1612H55.8654V48.5195H64.5801V52.1625H55.8654V59.8472H65.888V63.4901Z" fill="white"/>
<path d="M86.1112 41.1612H78.8283V63.4901H74.6211V41.1612H67.356V37.5H86.1112V41.1612Z" fill="white"/>
</g>
<defs>
<clipPath id="clip0_1904_4">
<rect width="100" height="100" fill="white"/>
</clipPath>
</defs>
</svg>
